<?xml version="1.0" encoding="UTF-8"?>
<svg id="Layer_2" data-name="Layer 2" xmlns="http://www.w3.org/2000/svg" viewBox="0 0 933.43 79.74">
  <defs>
    <style>
      .cls-1 {
        fill: none;
        stroke: #2476d4;
        stroke-miterlimit: 10; 
      }
    </style>
  </defs>
  <g id="Layer_1-2" data-name="Layer 1">
    <g>
      <g>
        <path class="cls-1" d="M29.88,79.24c0-12.6-1.73-20.2-5.46-23.92-3.72-3.72-11.33-5.46-23.93-5.46V29.86c12.6,0,20.21-1.73,23.93-5.45,3.72-3.72,5.45-11.31,5.45-23.91h20c0,12.59,1.73,20.18,5.46,23.91,3.72,3.72,11.33,5.45,23.92,5.45v20c-12.59,0-20.19,1.74-23.92,5.46-3.73,3.73-5.46,11.33-5.46,23.92H29.88Z"/>
        <path class="cls-1" d="M79.26,39.86c-30.13,0-39.38,9.25-39.38,39.38,0-30.13-9.23-39.38-39.38-39.38C30.65,39.86,39.88,30.63,39.88,.5c0,30.13,9.25,39.36,39.38,39.36Z"/>
        <path class="cls-1" d="M115.25,79.24c0-12.6-1.73-20.2-5.46-23.92-3.72-3.72-11.33-5.46-23.93-5.46V29.86c12.6,0,20.21-1.73,23.93-5.45,3.72-3.72,5.45-11.31,5.45-23.91h20c0,12.59,1.73,20.18,5.46,23.91,3.72,3.72,11.33,5.45,23.92,5.45v20c-12.59,0-20.19,1.74-23.92,5.46-3.73,3.73-5.46,11.33-5.46,23.92h-20Z"/>
        <path class="cls-1" d="M164.63,39.86c-30.13,0-39.38,9.25-39.38,39.38,0-30.13-9.23-39.38-39.38-39.38,30.15,0,39.38-9.23,39.38-39.36,0,30.13,9.25,39.36,39.38,39.36Z"/>
        <path class="cls-1" d="M200.61,79.24c0-12.6-1.73-20.2-5.46-23.92-3.72-3.72-11.33-5.46-23.93-5.46V29.86c12.6,0,20.21-1.73,23.93-5.45,3.72-3.72,5.45-11.31,5.45-23.91h20c0,12.59,1.73,20.18,5.46,23.91,3.72,3.72,11.33,5.45,23.92,5.45v20c-12.59,0-20.19,1.74-23.92,5.46-3.73,3.73-5.46,11.33-5.46,23.92h-20Z"/>
        <path class="cls-1" d="M250,39.86c-30.13,0-39.38,9.25-39.38,39.38,0-30.13-9.23-39.38-39.38-39.38,30.15,0,39.38-9.23,39.38-39.36,0,30.13,9.25,39.36,39.38,39.36Z"/>
        <path class="cls-1" d="M285.98,79.24c0-12.6-1.73-20.2-5.46-23.92-3.72-3.72-11.33-5.46-23.93-5.46V29.86c12.6,0,20.21-1.73,23.93-5.45,3.72-3.72,5.45-11.31,5.45-23.91h20c0,12.59,1.73,20.18,5.46,23.91,3.72,3.72,11.33,5.45,23.92,5.45v20c-12.59,0-20.19,1.74-23.92,5.46-3.73,3.73-5.46,11.33-5.46,23.92h-20Z"/>
        <path class="cls-1" d="M335.36,39.86c-30.13,0-39.38,9.25-39.38,39.38,0-30.13-9.23-39.38-39.38-39.38,30.15,0,39.38-9.23,39.38-39.36,0,30.13,9.25,39.36,39.38,39.36Z"/>
        <path class="cls-1" d="M371.35,79.24c0-12.6-1.73-20.2-5.46-23.92-3.72-3.72-11.33-5.46-23.93-5.46V29.86c12.6,0,20.21-1.73,23.93-5.45,3.72-3.72,5.45-11.31,5.45-23.91h20c0,12.59,1.73,20.18,5.46,23.91,3.72,3.72,11.33,5.45,23.92,5.45v20c-12.59,0-20.19,1.74-23.92,5.46s-5.46,11.33-5.46,23.92h-20Z"/>
        <path class="cls-1" d="M420.73,39.86c-30.13,0-39.38,9.25-39.38,39.38,0-30.13-9.23-39.38-39.38-39.38,30.15,0,39.38-9.23,39.38-39.36,0,30.13,9.25,39.36,39.38,39.36Z"/>
        <path class="cls-1" d="M456.71,79.24c0-12.6-1.73-20.2-5.46-23.92-3.72-3.72-11.33-5.46-23.93-5.46V29.86c12.6,0,20.21-1.73,23.93-5.45,3.72-3.72,5.45-11.31,5.45-23.91h20c0,12.59,1.73,20.18,5.46,23.91,3.72,3.72,11.33,5.45,23.92,5.45v20c-12.59,0-20.19,1.74-23.92,5.46-3.73,3.73-5.46,11.33-5.46,23.92h-20Z"/>
        <path class="cls-1" d="M506.09,39.86c-30.13,0-39.38,9.25-39.38,39.38,0-30.13-9.23-39.38-39.38-39.38,30.15,0,39.38-9.23,39.38-39.36,0,30.13,9.25,39.36,39.38,39.36Z"/>
      </g>
      <path class="cls-1" d="M542.08,79.24c0-12.6-1.73-20.2-5.46-23.92-3.72-3.72-11.33-5.46-23.93-5.46V29.86c12.6,0,20.21-1.73,23.93-5.45,3.72-3.72,5.45-11.31,5.45-23.91h20c0,12.59,1.73,20.18,5.46,23.91,3.72,3.72,11.33,5.45,23.92,5.45v20c-12.59,0-20.19,1.74-23.92,5.46-3.73,3.73-5.46,11.33-5.46,23.92h-20Z"/>
      <path class="cls-1" d="M591.46,39.86c-30.13,0-39.38,9.25-39.38,39.38,0-30.13-9.23-39.38-39.38-39.38,30.15,0,39.38-9.23,39.38-39.36,0,30.13,9.25,39.36,39.38,39.36Z"/>
      <path class="cls-1" d="M627.45,79.24c0-12.6-1.73-20.2-5.46-23.92-3.72-3.72-11.33-5.46-23.93-5.46V29.86c12.6,0,20.21-1.73,23.93-5.45,3.72-3.72,5.45-11.31,5.45-23.91h20c0,12.59,1.73,20.18,5.46,23.91,3.72,3.72,11.33,5.45,23.92,5.45v20c-12.59,0-20.19,1.74-23.92,5.46-3.73,3.73-5.46,11.33-5.46,23.92h-20Z"/>
      <path class="cls-1" d="M676.83,39.86c-30.13,0-39.38,9.25-39.38,39.38,0-30.13-9.23-39.38-39.38-39.38,30.15,0,39.38-9.23,39.38-39.36,0,30.13,9.25,39.36,39.38,39.36Z"/>
      <path class="cls-1" d="M712.81,79.24c0-12.6-1.73-20.2-5.46-23.92-3.72-3.72-11.33-5.46-23.93-5.46V29.86c12.6,0,20.21-1.73,23.93-5.45,3.72-3.72,5.45-11.31,5.45-23.91h20c0,12.59,1.73,20.18,5.46,23.91,3.72,3.72,11.33,5.45,23.92,5.45v20c-12.59,0-20.19,1.74-23.92,5.46-3.73,3.73-5.46,11.33-5.46,23.92h-20Z"/>
      <path class="cls-1" d="M762.19,39.86c-30.13,0-39.38,9.25-39.38,39.38,0-30.13-9.23-39.38-39.38-39.38,30.15,0,39.38-9.23,39.38-39.36,0,30.13,9.25,39.36,39.38,39.36Z"/>
      <path class="cls-1" d="M798.18,79.24c0-12.6-1.73-20.2-5.46-23.92-3.72-3.72-11.33-5.46-23.93-5.46V29.86c12.6,0,20.21-1.73,23.93-5.45,3.72-3.72,5.45-11.31,5.45-23.91h20c0,12.59,1.73,20.18,5.46,23.91,3.72,3.72,11.33,5.45,23.92,5.45v20c-12.59,0-20.19,1.74-23.92,5.46-3.73,3.73-5.46,11.33-5.46,23.92h-20Z"/>
      <path class="cls-1" d="M847.56,39.86c-30.13,0-39.38,9.25-39.38,39.38,0-30.13-9.23-39.38-39.38-39.38,30.15,0,39.38-9.23,39.38-39.36,0,30.13,9.25,39.36,39.38,39.36Z"/>
      <path class="cls-1" d="M883.55,79.24c0-12.6-1.73-20.2-5.46-23.92-3.72-3.72-11.33-5.46-23.93-5.46V29.86c12.6,0,20.21-1.73,23.93-5.45,3.72-3.72,5.45-11.31,5.45-23.91h20c0,12.59,1.73,20.18,5.46,23.91,3.72,3.72,11.33,5.45,23.92,5.45v20c-12.59,0-20.19,1.74-23.92,5.46-3.73,3.73-5.46,11.33-5.46,23.92h-20Z"/>
      <path class="cls-1" d="M932.93,39.86c-30.13,0-39.38,9.25-39.38,39.38,0-30.13-9.23-39.38-39.38-39.38,30.15,0,39.38-9.23,39.38-39.36,0,30.13,9.25,39.36,39.38,39.36Z"/>
    </g>
  </g>
</svg>